<svg xmlns="http://www.w3.org/2000/svg" viewBox="0 0 1919 820" fill="none" aria-hidden="true">
<path d="M0 0 C5.61 0 11.22 0 17 0 C17 14.85 17 29.7 17 45 C47.69 45 78.38 45 110 45 C110 30.15 110 15.3 110 0 C115.28 0 120.56 0 126 0 C126 34.65 126 69.3 126 105 C120.72 105 115.44 105 110 105 C110 90.48 110 75.96 110 61 C79.31 61 48.62 61 17 61 C17 75.52 17 90.04 17 105 C11.39 105 5.78 105 0 105 C0 70.35 0 35.7 0 0 Z " fill="#ffffff" transform="translate(196,354)"/>
<path d="M0 0 C5.28 0 10.56 0 16 0 C16.015 2.23 16.029 4.46 16.044 6.758 C16.095 14.146 16.161 21.534 16.236 28.922 C16.28 33.399 16.32 37.876 16.346 42.353 C16.373 46.678 16.413 51.003 16.463 55.327 C16.48 56.973 16.491 58.619 16.498 60.264 C16.507 62.579 16.535 64.893 16.568 67.207 C16.579 68.522 16.59 69.836 16.601 71.191 C17.15 76.434 18.537 80.995 21.688 85.312 C29.31 90.875 37.482 90.43 46.535 90.363 C47.942 90.363 49.349 90.363 50.755 90.365 C53.691 90.365 56.627 90.354 59.563 90.336 C63.311 90.313 67.058 90.313 70.806 90.32 C73.707 90.323 76.607 90.316 79.508 90.307 C80.889 90.303 82.27 90.302 83.652 90.303 C100.181 90.306 100.181 90.306 105.75 85.75 C110.068 80.473 111.446 75.99 111.432 69.25 C111.443 68.499 111.453 67.747 111.463 66.972 C111.493 64.505 111.503 62.038 111.512 59.57 C111.529 57.853 111.547 56.135 111.566 54.417 C111.614 49.909 111.643 45.402 111.67 40.894 C111.699 36.288 111.746 31.683 111.791 27.078 C111.877 18.052 111.943 9.026 112 0 C117.28 0 122.56 0 128 0 C128.177 9.328 128.344 18.656 128.495 27.984 C128.565 32.317 128.64 36.649 128.724 40.981 C128.805 45.17 128.875 49.358 128.938 53.547 C128.963 55.137 128.993 56.728 129.026 58.318 C129.298 71.395 129.58 85.404 120.398 95.816 C113.48 102.119 105.844 105.142 96.566 105.177 C96.189 105.18 96.189 105.18 94.279 105.197 C91.778 105.217 89.278 105.228 86.777 105.238 C85.921 105.242 85.065 105.246 84.182 105.251 C79.645 105.271 75.108 105.286 70.571 105.295 C65.902 105.306 61.235 105.341 56.567 105.38 C52.963 105.407 49.359 105.415 45.754 105.418 C44.035 105.423 42.315 105.435 40.596 105.453 C28.55 105.576 17.143 104.83 8 96 C1.94 88.568 -0.323 81.47 -0.227 71.862 C-0.227 71.471 -0.227 71.471 -0.228 69.494 C-0.227 66.935 -0.211 64.376 -0.195 61.816 C-0.192 60.033 -0.189 58.249 -0.187 56.466 C-0.179 51.788 -0.16 47.111 -0.137 42.434 C-0.117 37.655 -0.108 32.875 -0.098 28.096 C-0.076 18.73 -0.041 9.365 0 0 Z " fill="#ffffff" transform="translate(391,354)"/>
<path d="M0 0 C19.401 -1.301 19.401 -1.301 24.996 1.5 C26.984 3.547 28.479 5.59 30 8 C31.084 9.267 32.189 10.518 33.312 11.75 C33.878 12.407 34.444 13.065 35.027 13.742 C37.432 16.494 39.9 19.186 42.375 21.875 C46.502 26.36 50.596 30.872 54.66 35.414 C56.404 37.341 58.16 39.25 59.934 41.148 C60.432 41.685 60.931 42.221 61.445 42.773 C62.417 43.816 63.392 44.855 64.371 45.891 C66.74 48.439 68.661 50.771 70 54 C76.283 48.83 81.643 43.108 87 37 C88.498 35.331 89.998 33.664 91.5 32 C93.717 29.537 95.934 27.074 98.145 24.605 C101.448 20.921 104.762 17.248 108.129 13.621 C108.398 13.331 108.398 13.331 109.759 11.865 C110.813 10.73 111.869 9.597 112.927 8.466 C116.84 4.256 116.84 4.256 118.344 1.844 C120 0 120 0 122.36 -0.454 C123.266 -0.433 124.172 -0.412 125.105 -0.391 C125.597 -0.384 125.597 -0.384 128.084 -0.352 C129.108 -0.318 130.132 -0.285 131.188 -0.25 C131.705 -0.241 131.705 -0.241 134.326 -0.195 C136.885 -0.148 139.442 -0.082 142 0 C137.801 5.889 133.197 11.166 128.188 16.375 C126.758 17.877 125.33 19.379 123.902 20.883 C123.224 21.596 122.546 22.309 121.847 23.044 C118.903 26.161 116.048 29.355 113.195 32.555 C110.533 35.521 107.832 38.449 105.125 41.375 C104.618 41.923 104.112 42.471 103.59 43.035 C102.566 44.142 101.542 45.249 100.519 46.356 C98.091 48.984 95.669 51.615 93.25 54.25 C92.43 55.142 91.61 56.034 90.766 56.953 C90.346 57.435 89.926 57.918 89.494 58.414 C88 60 88 60 85.928 61.709 C81.337 65.875 79.558 69.298 79.091 75.378 C78.935 79.443 78.95 83.496 79 87.562 C78.992 89.256 78.98 90.949 78.965 92.643 C78.929 96.764 78.966 100.876 79 105 C73.72 105 68.44 105 63 105 C63.009 102.41 63.018 99.821 63.027 97.152 C63.012 94.627 62.985 92.102 62.957 89.576 C62.944 87.83 62.943 86.083 62.955 84.336 C63.042 69.868 63.042 69.868 60.625 65.536 C58.857 63.795 57.02 62.435 55 61 C53.804 59.713 52.643 58.394 51.516 57.047 C48.032 53.012 44.412 49.123 40.75 45.25 C34.443 38.55 28.202 31.797 22 25 C20.628 23.501 19.255 22.004 17.881 20.506 C16.97 19.512 16.059 18.518 15.148 17.523 C12.728 14.879 10.3 12.242 7.863 9.613 C7.353 9.061 6.842 8.509 6.316 7.939 C5.33 6.872 4.342 5.807 3.352 4.744 C0 1.112 0 1.112 0 0 Z " fill="#ffffff" transform="translate(572,354)"/>
<path d="M0 0 C1.758 0.006 3.517 0.01 5.275 0.013 C9.877 0.024 14.478 0.054 19.079 0.087 C23.785 0.118 28.491 0.131 33.197 0.146 C42.412 0.179 51.626 0.23 60.84 0.293 C61.516 3.967 61.959 7.432 61.902 11.168 C61.893 11.949 61.884 12.73 61.875 13.535 C61.863 14.115 61.852 14.695 61.84 15.293 C60.92 15.299 60.001 15.305 59.053 15.311 C50.359 15.369 41.664 15.441 32.97 15.529 C28.501 15.573 24.032 15.613 19.562 15.639 C15.244 15.666 10.926 15.706 6.607 15.756 C4.965 15.773 3.323 15.784 1.681 15.791 C-19.748 15.881 -19.748 15.881 -27.16 23.293 C-30.175 27.6 -31.265 31.269 -31.337 36.476 C-31.35 37.29 -31.363 38.105 -31.376 38.945 C-31.383 39.817 -31.391 40.69 -31.398 41.59 C-31.407 42.497 -31.415 43.405 -31.423 44.34 C-31.437 46.26 -31.447 48.18 -31.455 50.1 C-31.467 52.055 -31.487 54.01 -31.517 55.965 C-31.56 58.798 -31.576 61.631 -31.586 64.465 C-31.603 65.33 -31.621 66.195 -31.639 67.086 C-31.616 73.566 -30.206 78.913 -25.783 83.82 C-20.332 88.724 -14.586 89.59 -7.502 89.612 C-6.76 89.622 -6.018 89.632 -5.254 89.642 C-2.819 89.673 -0.384 89.69 2.051 89.707 C3.746 89.726 5.442 89.745 7.137 89.766 C11.585 89.817 16.034 89.857 20.483 89.894 C25.028 89.934 29.572 89.985 34.117 90.035 C43.025 90.132 51.932 90.215 60.84 90.293 C61.005 92.768 61.005 92.768 61.84 105.293 C51.469 105.384 41.098 105.457 30.727 105.5 C25.91 105.521 21.093 105.549 16.277 105.595 C11.621 105.638 6.966 105.662 2.31 105.672 C0.541 105.68 -1.227 105.694 -2.996 105.716 C-15.974 105.869 -26.694 105.042 -37.086 96.348 C-45.17 88.34 -48.339 80.474 -48.489 69.286 C-48.492 68.281 -48.494 67.277 -48.496 66.242 C-48.503 65.188 -48.509 64.134 -48.516 63.048 C-48.526 60.825 -48.531 58.602 -48.531 56.379 C-48.535 53.002 -48.571 49.625 -48.609 46.248 C-48.615 44.079 -48.619 41.911 -48.621 39.742 C-48.635 38.744 -48.65 37.746 -48.665 36.717 C-48.596 25.977 -44.8 16.903 -37.16 9.293 C-25.493 0.446 -14.031 -0.132 0 0 Z " fill="#ffffff" transform="translate(971.16015625,353.70703125)"/>
<path d="M0 0 C5.28 0 10.56 0 16 0 C16 14.85 16 29.7 16 45 C46.03 45 76.06 45 107 45 C107 30.15 107 15.3 107 0 C112.28 0 117.56 0 123 0 C123 34.65 123 69.3 123 105 C117.72 105 112.44 105 107 105 C107 90.48 107 75.96 107 61 C76.97 61 46.94 61 16 61 C16 75.52 16 90.04 16 105 C10.72 105 5.44 105 0 105 C0 70.35 0 35.7 0 0 Z " fill="#ffffff" transform="translate(1090,354)"/>
<path d="M0 0 C1.53 -0.005 3.06 -0.01 4.591 -0.016 C7.786 -0.025 10.982 -0.022 14.177 -0.012 C18.244 -0.001 22.311 -0.021 26.378 -0.05 C29.535 -0.069 32.692 -0.068 35.849 -0.063 C37.347 -0.063 38.846 -0.069 40.344 -0.081 C52.91 -0.171 63.759 1.537 73.195 10.434 C83.199 20.576 83.745 33.849 83.693 47.275 C83.683 48.216 83.673 49.157 83.662 50.127 C83.633 52.995 83.641 55.861 83.654 58.729 C83.639 73.501 82.932 86.226 72.195 97.434 C65.068 102.914 57.991 105.669 48.972 105.724 C48.275 105.731 47.578 105.738 46.86 105.744 C44.571 105.763 42.282 105.767 39.992 105.77 C38.388 105.776 36.784 105.783 35.18 105.79 C31.821 105.802 28.462 105.805 25.103 105.804 C20.822 105.804 16.541 105.831 12.26 105.866 C8.946 105.888 5.633 105.892 2.32 105.891 C0.743 105.893 -0.834 105.902 -2.411 105.918 C-14.669 106.027 -25.336 104.64 -34.582 95.719 C-43.177 86.543 -44.939 77.116 -45.043 64.898 C-45.051 63.983 -45.059 63.068 -45.067 62.125 C-45.081 60.191 -45.092 58.257 -45.1 56.323 C-45.111 54.368 -45.132 52.412 -45.161 50.456 C-45.376 36.272 -45.574 22.742 -35.785 11.367 C-25.362 1.191 -13.924 -0.037 0 0 Z M-23.742 22.121 C-29.445 31.281 -29.246 40.064 -29.141 50.481 C-29.117 52.994 -29.12 55.505 -29.127 58.018 C-29.121 59.637 -29.114 61.256 -29.105 62.875 C-29.106 63.615 -29.107 64.355 -29.108 65.117 C-29.018 71.86 -28.314 78.555 -23.617 83.746 C-23.067 84.382 -22.516 85.017 -21.949 85.672 C-14.881 91.478 -7.177 90.892 1.562 90.867 C2.966 90.872 4.369 90.877 5.772 90.883 C8.706 90.892 11.639 90.89 14.573 90.88 C18.311 90.868 22.047 90.888 25.785 90.918 C28.682 90.936 31.578 90.936 34.474 90.93 C35.851 90.93 37.228 90.936 38.605 90.948 C47.614 91.018 55.39 90.733 62.354 84.503 C66.502 78.16 67.127 72.733 67.133 65.246 C67.152 64.116 67.171 62.987 67.19 61.823 C67.23 58.359 67.22 54.898 67.195 51.434 C67.196 50.37 67.198 49.307 67.199 48.211 C67.192 45.242 67.142 42.277 67.07 39.309 C67.061 38.428 67.052 37.547 67.043 36.64 C66.733 29.215 64.042 24.281 58.82 19.059 C51.633 14.61 43.941 15.112 35.738 15.098 C34.44 15.091 33.142 15.084 31.805 15.077 C29.064 15.066 26.323 15.062 23.582 15.063 C20.095 15.063 16.609 15.036 13.123 15.001 C9.766 14.974 6.408 14.975 3.051 14.973 C1.812 14.958 0.573 14.944 -0.703 14.929 C-9.522 14.975 -17.057 16.005 -23.742 22.121 Z " fill="#ffffff" transform="translate(1313.8046875,353.56640625)"/>
<path d="M0 0 C18.359 0 18.359 0 24.762 5.519 C25.24 6 25.719 6.482 26.211 6.977 C26.772 7.537 27.332 8.096 27.91 8.672 C28.502 9.273 29.094 9.874 29.705 10.493 C30.346 11.136 30.988 11.779 31.649 12.441 C33.757 14.557 35.859 16.679 37.961 18.801 C39.435 20.281 40.909 21.761 42.384 23.24 C46.262 27.131 50.134 31.027 54.004 34.925 C60.19 41.154 66.383 47.377 72.578 53.595 C74.732 55.759 76.882 57.927 79.032 60.094 C80.367 61.436 81.702 62.777 83.037 64.118 C83.331 64.416 83.331 64.416 84.819 65.922 C88.48 69.592 92.273 73.055 96.202 76.436 C98.606 78.527 100.849 80.647 103 83 C103 83.66 103 84.32 103 85 C103.66 85 104.32 85 105 85 C105.33 56.95 105.66 28.9 106 0 C111.61 0 117.22 0 123 0 C123 34.65 123 69.3 123 105 C101.575 105 101.575 105 95.8 100.154 C95.121 99.465 94.442 98.777 93.742 98.067 C92.961 97.282 92.18 96.498 91.375 95.69 C90.55 94.846 89.725 94.002 88.875 93.133 C88.01 92.261 87.145 91.389 86.253 90.491 C83.495 87.709 80.747 84.918 78 82.125 C75.251 79.341 72.5 76.559 69.747 73.78 C68.036 72.053 66.328 70.322 64.625 68.588 C60.57 64.483 56.491 60.62 52 57 C50.383 55.227 50.383 55.227 49.125 53.625 C46.315 50.231 43.181 47.428 39.836 44.57 C37.773 42.806 35.805 41.03 34 39 C34 38.34 34 37.68 34 37 C32.68 36.34 31.36 35.68 30 35 C30 34.34 30 33.68 30 33 C28.68 32.34 27.36 31.68 26 31 C23.03 28.03 20.06 25.06 17 22 C16.67 49.39 16.34 76.78 16 105 C10.72 105 5.44 105 0 105 C0 70.35 0 35.7 0 0 Z " fill="#ffffff" transform="translate(1451,354)"/>
<path d="M0 0 C0.869 -0 1.738 -0 2.633 -0 C5.495 0 8.357 0.008 11.219 0.016 C13.208 0.018 15.196 0.019 17.184 0.02 C22.41 0.024 27.637 0.034 32.863 0.045 C38.198 0.055 43.534 0.06 48.87 0.065 C59.334 0.075 69.798 0.092 80.262 0.114 C79.371 1.492 78.474 2.866 77.575 4.239 C77.076 5.004 76.577 5.77 76.063 6.559 C75.469 7.402 74.875 8.245 74.262 9.114 C73.516 10.189 72.769 11.265 72 12.373 C69.262 15.114 69.262 15.114 65.957 15.853 C64.702 15.848 63.446 15.844 62.152 15.839 C61.456 15.845 60.759 15.85 60.041 15.856 C57.746 15.869 55.452 15.841 53.157 15.813 C51.551 15.816 49.946 15.823 48.34 15.833 C44.114 15.852 39.888 15.838 35.662 15.814 C28.917 15.78 22.171 15.786 15.426 15.81 C13.083 15.813 10.74 15.795 8.397 15.775 C-1.866 15.744 -11.048 16.21 -19.167 23.125 C-23.93 29.156 -25.345 34.789 -25.269 42.364 C-25.271 42.792 -25.271 42.792 -25.28 44.962 C-25.283 46.764 -25.276 48.566 -25.259 50.367 C-25.238 53.107 -25.259 55.843 -25.284 58.582 C-25.282 60.343 -25.277 62.103 -25.269 63.864 C-25.277 64.672 -25.285 65.481 -25.293 66.314 C-25.183 73.067 -23.292 78.409 -18.613 83.364 C-8.783 89.347 0.239 89.655 11.427 89.504 C13.071 89.497 14.716 89.491 16.361 89.487 C20.658 89.472 24.955 89.433 29.253 89.388 C33.65 89.347 38.048 89.329 42.446 89.309 C51.052 89.266 59.657 89.196 68.262 89.114 C68.592 81.194 68.922 73.274 69.262 65.114 C52.432 65.114 35.602 65.114 18.262 65.114 C20.676 59.079 23.229 54.326 28.262 50.114 C32.714 48.781 36.898 48.939 41.512 49.137 C42.766 49.151 44.02 49.165 45.312 49.18 C48.622 49.226 51.927 49.316 55.235 49.427 C58.62 49.53 62.005 49.576 65.391 49.625 C72.019 49.727 78.634 49.922 85.262 50.114 C84.932 68.264 84.602 86.414 84.262 105.114 C60.995 105.274 60.995 105.274 51.03 105.309 C44.247 105.333 37.464 105.361 30.681 105.415 C25.208 105.459 19.736 105.483 14.263 105.493 C12.182 105.5 10.1 105.515 8.019 105.536 C-8.136 105.698 -20.222 104.391 -32.738 93.114 C-39.823 84.845 -42.205 76.292 -42.171 65.621 C-42.176 64.635 -42.182 63.649 -42.187 62.634 C-42.193 60.558 -42.192 58.482 -42.184 56.406 C-42.175 53.254 -42.204 50.105 -42.236 46.953 C-42.237 44.926 -42.237 42.899 -42.234 40.871 C-42.245 39.942 -42.256 39.012 -42.268 38.055 C-42.151 26.964 -37.68 18.43 -30.183 10.461 C-21.626 2.416 -11.409 -0.05 0 0 Z " fill="#ffffff" transform="translate(1670.737548828125,353.886474609375)"/>
<path d="M0 0 C4.004 2.681 6.245 5.552 8.68 9.672 C9.353 10.799 10.027 11.925 10.721 13.086 C11.072 13.683 11.422 14.279 11.784 14.894 C13.275 17.43 14.787 19.953 16.298 22.477 C17.073 23.772 17.847 25.068 18.62 26.364 C22.185 32.336 25.858 38.238 29.562 44.125 C35.499 53.578 41.362 63.075 47.198 72.591 C51.877 80.21 56.622 87.784 61.46 95.304 C61.915 96.017 62.371 96.73 62.84 97.465 C63.236 98.08 63.631 98.694 64.039 99.328 C65 101 65 101 66 104 C59.669 105.192 53.19 106.291 47 104 C41.868 99.386 39.143 92.664 36.236 86.525 C34.608 83.2 32.694 80.258 30.625 77.188 C24.728 68.122 19.182 58.842 13.577 49.595 C11.589 46.324 9.578 43.067 7.562 39.812 C3.935 33.936 0.45 27.983 -3 22 C-6.196 25.785 -8.736 29.776 -11.188 34.062 C-15.803 42.015 -20.537 49.893 -25.312 57.75 C-25.677 58.351 -26.042 58.951 -26.418 59.57 C-30.176 65.75 -33.947 71.922 -37.738 78.082 C-38.308 79.008 -38.879 79.935 -39.466 80.889 C-40.555 82.644 -41.654 84.394 -42.762 86.136 C-44.962 89.601 -47.066 92.959 -48.688 96.734 C-51.1 101.901 -51.1 101.901 -54 104 C-60.276 105.258 -66.683 104.625 -73 104 C-68.64 96.14 -64.081 88.454 -59.25 80.875 C-55.089 74.348 -51.025 67.775 -47.062 61.125 C-42.529 53.52 -37.915 45.971 -33.227 38.46 C-29.94 33.18 -26.718 27.866 -23.539 22.52 C-22.385 20.587 -21.23 18.656 -20.076 16.724 C-19.321 15.457 -18.57 14.188 -17.824 12.916 C-16.776 11.133 -15.715 9.357 -14.652 7.582 C-14.044 6.553 -13.435 5.524 -12.808 4.464 C-9.341 -0.261 -5.693 -0.599 0 0 Z " fill="#ffffff" transform="translate(804,355)"/>
<path d="M0 0 C2.773 0.033 5.529 -0.04 8.301 -0.123 C21.063 -0.236 21.063 -0.236 25.69 3.715 C27.591 6.572 28.935 8.976 29.842 12.283 C29.512 13.273 29.182 14.263 28.842 15.283 C11.022 15.283 -6.798 15.283 -25.158 15.283 C-24.498 13.633 -23.838 11.983 -23.158 10.283 C-22.892 9.487 -22.625 8.691 -22.351 7.87 C-18.057 -1.429 -8.931 -0.146 0 0 Z " fill="#ffffff" transform="translate(798.157958984375,437.716796875)"/>
</svg>
